<?xml version="1.0" encoding="UTF-8"?>
<!DOCTYPE svg PUBLIC "-//W3C//DTD SVG 1.1//EN"
  "http://www.w3.org/Graphics/SVG/1.1/DTD/svg11.dtd">
<!-- Created with Inkpad (http://www.taptrix.com/) --><svg xmlns:inkpad="http://taptrix.com/inkpad/svg_extensions" height="121pt" xmlns:xlink="http://www.w3.org/1999/xlink" xmlns="http://www.w3.org/2000/svg" width="460pt" version="1.1" viewBox="0,0,460,121">
<defs/>
<g id="g10" inkpad:layerName="g10">
<g opacity="1">
<path d="M-58+178.28M162.189+40.0573C172.867+29.3787+190.948+27.6413+203.364+40.0573C208.893+45.5868+211.623+52.8712+211.623+60.3795L211.623+60.9123C211.623+68.4201+208.893+75.7049+203.364+81.2331C190.948+93.6493+172.867+91.9117+162.189+81.2331C147.708+66.7545+141.601+60.6456+141.601+60.6456C141.601+60.6456+147.708+54.5379+162.189+40.0573ZM100.093+60.6445C100.093+60.6445+112.371+72.9227+141.479+102.031C162.944+123.496+199.289+126.988+224.247+102.031C235.363+90.9149+240.848+76.2727+240.848+61.1795L240.848+60.1097C240.848+45.016+235.363+30.3733+224.247+19.2587C199.289-5.69866+162.944-2.20666+141.479+19.2587C112.371+48.3664+100.093+60.6445+100.093+60.6445L100.093+60.6445" opacity="1" fill="#61c9b7"/>
<path d="M-58+178.28M141.601+60.6436C141.601+60.6436+147.708+66.7545+162.189+81.2331C172.867+91.9117+190.948+93.6493+203.364+81.2331C208.893+75.7049+211.623+68.4201+211.623+60.9123L211.623+60.6445L240.848+60.6445L240.848+61.1795C240.848+76.2727+235.363+90.9149+224.247+102.031C199.289+126.988+162.944+123.496+141.479+102.031C112.371+72.9227+100.095+60.6445+100.095+60.6445L141.601+60.6436" opacity="1" fill="#4c9c8f"/>
<path d="M-58+178.28M100.095+60.6445C100.095+60.6445+93.9867+66.7535+79.5067+81.2321C68.8281+91.9117+50.7473+93.6493+38.3312+81.2321C32.8027+75.704+30.0729+68.4185+30.0729+60.9107L30.0729+60.3784C30.0729+52.8701+32.8027+45.5863+38.3312+40.056C50.7473+27.64+68.8281+29.3773+79.5067+40.056C93.9867+54.5368+100.095+60.6445+100.095+60.6445ZM141.604+60.6445L141.604+60.6445C141.604+60.6445+129.325+48.3655+100.217+19.2573C78.752-2.20799+42.4063-5.69999+17.4484+19.2573C6.33386+30.3733+0.847865+45.0149+0.847865+60.1081L0.847865+61.1784C0.847865+76.2716+6.33387+90.9133+17.4484+102.029C42.4063+126.987+78.752+123.495+100.217+102.029C129.325+72.9212+141.604+60.6445+141.604+60.6445" opacity="1" fill="#ed1c24"/>
<path d="M-58+178.28M100.095+60.6445C100.095+60.6445+93.9867+66.7535+79.5067+81.2321C68.8281+91.9117+50.7473+93.6493+38.3323+81.2321C32.8027+75.704+30.0735+68.4185+30.0735+60.9107L30.0735+60.6436L0.847865+60.6436L0.847865+61.1784C0.847865+76.2716+6.33387+90.9133+17.4484+102.029C42.4063+126.987+78.752+123.495+100.217+102.029C129.325+72.9212+141.603+60.6445+141.603+60.6445L100.095+60.6445" opacity="1" fill="#c4161d"/>
<path d="M-58+178.28M141.603+60.644L141.603+60.644L100.095+60.644C100.096+60.6451+106.449+66.9993+120.848+81.3972C135.248+66.9983+141.601+60.6445+141.603+60.644" opacity="1" fill="#a61217"/>

<path d="M-58+178.28M284.177+6.97867C288.229+6.97867+291.739+8.31601+294.787+10.7373L291.321+15.0813C289.316+13.452+287.144+12.408+284.263+12.408C278.875+12.408+275.324+16.168+275.324+21.9733C275.324+27.988+278.789+31.8733+284.263+31.8733C287.227+31.8733+289.609+30.7867+291.529+28.8653L295.288+32.8747C292.156+35.7987+288.523+37.3013+283.969+37.3013C275.072+37.3013+268.933+30.8707+268.933+21.9733C268.933+13.3267+275.24+6.97867+284.177+6.97867" opacity="1" fill="#444142"/>
<path d="M-58+178.28M306.888+32.832C308.684+32.832+310.104+32.04+311.065+30.9107L311.065+26.6933C307.597+26.9013+304.34+27.7787+304.34+30.536C304.34+31.9147+305.343+32.832+306.888+32.832ZM311.065+23.268L311.065+21.3467C311.065+19.7173+310.104+18.7573+308.016+18.7573C305.885+18.7573+303.631+19.592+300.832+20.9707L298.66+16.376C301.708+14.8307+305.217+13.7867+308.307+13.7867C314.74+13.7867+317.288+16.9613+317.288+21.556L317.288+30.8707C317.288+32.0813+317.956+32.5827+319.084+32.5827L319.084+36.884C314.781+36.884+313.028+36.2573+311.733+34.128C309.895+36.1333+307.807+37.3013+304.757+37.3013C300.873+37.3013+298.116+34.88+298.116+31.3293C298.116+26.4413+302.669+23.8533+311.065+23.268" opacity="1" fill="#444142"/>
<path d="M-58+178.28M322.732+14.288L328.663+14.288L328.956+16.8773C330.584+15.1653+332.923+13.744+335.721+13.744C340.776+13.744+342.864+16.8347+342.864+21.8893L342.864+36.7587L336.64+36.7587L336.64+21.764C336.64+19.7587+335.805+18.4653+333.757+18.4653C331.963+18.4653+330.333+19.384+328.997+21.012L328.997+36.7587L322.732+36.7587L322.732+14.288" opacity="1" fill="#444142"/>
<path d="M-58+178.28M355.429+32.832C357.225+32.832+358.645+32.04+359.607+30.9107L359.607+26.6933C356.139+26.9013+352.881+27.7787+352.881+30.536C352.881+31.9147+353.884+32.832+355.429+32.832ZM359.607+23.268L359.607+21.3467C359.607+19.7173+358.645+18.7573+356.557+18.7573C354.427+18.7573+352.172+19.592+349.372+20.9707L347.2+16.376C350.251+14.8307+353.759+13.7867+356.849+13.7867C363.281+13.7867+365.829+16.9613+365.829+21.556L365.829+30.8707C365.829+32.0813+366.497+32.5827+367.627+32.5827L367.627+36.884C363.323+36.884+361.569+36.2573+360.275+34.128C358.436+36.1333+356.348+37.3013+353.3+37.3013C349.415+37.3013+346.657+34.88+346.657+31.3293C346.657+26.4413+351.211+23.8533+359.607+23.268" opacity="1" fill="#444142"/>
<path d="M-58+178.28M385.219+30.3267L385.219+20.8453C383.883+19.384+382.42+18.5893+380.625+18.5893C377.743+18.5893+376.323+20.9293+376.323+25.2733C376.323+29.6587+377.743+32.4987+380.625+32.4987C382.463+32.4987+383.841+31.8307+385.219+30.3267ZM370.099+25.2733C370.099+17.6707+373.608+13.7867+378.787+13.7867C381.251+13.7867+383.548+14.9147+385.219+16.7933L385.219+5.224L391.443+5.224L391.443+36.7587L385.929+36.7587L385.553+34.128C383.8+35.9653+381.669+37.3013+378.661+37.3013C373.649+37.3013+370.099+33.168+370.099+25.2733" opacity="1" fill="#444142"/>
<path d="M-58+178.28M415.492+32.832C417.289+32.832+418.708+32.04+419.669+30.9107L419.669+26.6933C416.203+26.9013+412.944+27.7787+412.944+30.536C412.944+31.9147+413.947+32.832+415.492+32.832ZM419.669+23.268L419.669+21.3467C419.669+19.7173+418.708+18.7573+416.62+18.7573C414.489+18.7573+412.235+19.592+409.436+20.9707L407.264+16.376C410.313+14.8307+413.821+13.7867+416.913+13.7867C423.345+13.7867+425.893+16.9613+425.893+21.556L425.893+30.8707C425.893+32.0813+426.561+32.5827+427.689+32.5827L427.689+36.884C423.387+36.884+421.633+36.2573+420.337+34.128C418.5+36.1333+416.412+37.3013+413.361+37.3013C409.477+37.3013+406.721+34.88+406.721+31.3293C406.721+26.4413+411.273+23.8533+419.669+23.268" opacity="1" fill="#444142"/>
<path d="M-58+178.28M431.336+14.288L437.267+14.288L437.56+16.8773C439.189+15.1653+441.528+13.744+444.325+13.744C449.38+13.744+451.469+16.8347+451.469+21.8893L451.469+36.7587L445.245+36.7587L445.245+21.764C445.245+19.7587+444.409+18.4653+442.361+18.4653C440.567+18.4653+438.937+19.384+437.601+21.012L437.601+36.7587L431.336+36.7587L431.336+14.288" opacity="1" fill="#444142"/>
<path d="M-58+178.28M282.675+70.2117C285.432+70.2117+287.227+68.9592+287.227+66.4524C287.227+64.0305+285.432+62.8185+282.675+62.8185L276.327+62.8185L276.327+70.2117L282.675+70.2117ZM281.756+58.0993C284.637+58.0993+286.141+56.6368+286.141+54.5065C286.141+52.5019+284.637+51.0821+281.756+51.0821L276.327+51.0821L276.327+58.0993L281.756+58.0993ZM270.06+46.0279L282.173+46.0279C289.232+46.0279+292.491+49.2857+292.491+53.8805C292.491+56.9289+290.82+58.9341+288.105+60.1035C291.321+61.106+293.576+63.3196+293.576+66.8707C293.576+72.3003+289.316+75.2664+282.759+75.2664L270.06+75.2664L270.06+46.0279" opacity="1" fill="#444142"/>
<path d="M-58+178.28M297.988+43.7307L304.252+43.7307L304.252+75.2664L297.988+75.2664L297.988+43.7307" opacity="1" fill="#444142"/>
<path d="M-58+178.28M319.529+71.0893C322.663+71.0893+324.459+68.2493+324.459+63.8628C324.459+59.7279+322.536+57.0128+319.529+57.0128C316.48+57.0128+314.517+59.7279+314.517+63.8628C314.517+68.2493+316.272+71.0893+319.529+71.0893ZM319.529+52.2931C325.963+52.2931+330.807+56.8873+330.807+63.8212C330.807+71.2144+326.253+75.8092+319.529+75.8092C312.763+75.8092+308.211+71.2144+308.211+63.8212C308.211+56.8873+313.056+52.2931+319.529+52.2931" opacity="1" fill="#444142"/>
<path d="M-58+178.28M344.935+71.0893C348.068+71.0893+349.863+68.2493+349.863+63.8628C349.863+59.7279+347.941+57.0128+344.935+57.0128C341.885+57.0128+339.921+59.7279+339.921+63.8628C339.921+68.2493+341.677+71.0893+344.935+71.0893ZM344.935+52.2931C351.367+52.2931+356.212+56.8873+356.212+63.8212C356.212+71.2144+351.659+75.8092+344.935+75.8092C338.168+75.8092+333.616+71.2144+333.616+63.8212C333.616+56.8873+338.461+52.2931+344.935+52.2931" opacity="1" fill="#444142"/>
<path d="M-58+178.28M374.336+68.8341L374.336+59.3513C373+57.8899+371.537+57.0961+369.743+57.0961C366.86+57.0961+365.44+59.4357+365.44+63.7795C365.44+68.1649+366.86+71.006+369.743+71.006C371.58+71.006+372.959+70.3379+374.336+68.8341ZM359.216+63.7795C359.216+56.1779+362.725+52.2931+367.904+52.2931C370.368+52.2931+372.665+53.4207+374.336+55.3003L374.336+43.7307L380.56+43.7307L380.56+75.2664L375.047+75.2664L374.671+72.6347C372.917+74.4721+370.787+75.8092+367.779+75.8092C362.767+75.8092+359.216+71.6737+359.216+63.7795" opacity="1" fill="#444142"/>
<path d="M-58+178.28M271.815+106.087C274.404+107.673+277.453+108.76+280.419+108.76C283.552+108.76+285.223+107.465+285.223+105.585C285.223+100.115+269.435+103.789+269.435+92.7212C269.435+87.9175+273.36+83.992+280.168+83.992C283.969+83.992+287.393+84.9519+290.653+86.4988L288.313+91.468C285.724+90.1732+283.008+89.5467+280.419+89.5467C277.62+89.5467+275.949+90.8841+275.949+92.6373C275.949+98.0253+291.739+94.2253+291.739+105.503C291.739+110.432+287.98+114.316+280.461+114.316C276.075+114.316+271.607+112.812+268.808+111.059L271.815+106.087" opacity="1" fill="#444142"/>
<path d="M-58+178.28M301.221+100.197L310.117+100.197C310.117+97.4415+309.031+95.2696+306.148+95.2696C303.727+95.2696+301.805+96.9399+301.221+100.197ZM305.981+90.7587C312.456+90.7587+316.048+94.9773+316.048+101.033C316.048+101.911+315.923+103.08+315.799+103.748L301.096+103.748C301.388+107.507+303.184+109.344+306.525+109.344C308.739+109.344+310.827+108.594+312.707+107.424L315.339+111.349C312.583+113.313+309.364+114.316+306.024+114.316C299.425+114.316+294.747+109.931+294.747+102.412C294.747+95.2269+299.76+90.7587+305.981+90.7587" opacity="1" fill="#444142"/>
<path d="M-58+178.28M319.988+91.3013L325.795+91.3013L326.212+94.768C327.924+91.7612+330.096+90.6748+332.601+90.6748C333.645+90.6748+334.565+90.8415+335.36+91.092L334.44+96.856C333.645+96.5639+332.687+96.3545+331.473+96.3545C329.177+96.3545+327.632+97.7331+326.253+100.324L326.253+113.773L319.988+113.773L319.988+91.3013" opacity="1" fill="#444142"/>
<path d="M-58+178.28M337.295+91.3013L343.435+91.3013L348.155+107.005L348.239+107.005L352.959+91.3013L358.848+91.3013L351.413+113.773L344.729+113.773L337.295+91.3013" opacity="1" fill="#444142"/>
<path d="M-58+178.28M383.276+90.7997C385.991+90.7997+388.791+91.6347+391.253+93.5988L388.121+97.6092C386.868+96.6065+385.323+95.8535+383.444+95.8535C380.561+95.8535+378.181+98.1519+378.181+102.412C378.181+106.839+380.477+109.22+383.444+109.22C385.448+109.22+386.785+108.552+388.121+107.383L391.547+111.059C389.083+113.229+386.492+114.316+383.276+114.316C376.76+114.316+371.873+109.845+371.873+102.412C371.873+95.2269+376.719+90.7997+383.276+90.7997" opacity="1" fill="#444142"/>
<path d="M-58+178.28M399.397+100.197L408.293+100.197C408.293+97.4415+407.207+95.2696+404.325+95.2696C401.903+95.2696+399.981+96.9399+399.397+100.197ZM404.159+90.7587C410.633+90.7587+414.224+94.9773+414.224+101.033C414.224+101.911+414.099+103.08+413.973+103.748L399.272+103.748C399.564+107.507+401.36+109.344+404.701+109.344C406.916+109.344+409.004+108.594+410.883+107.424L413.515+111.349C410.757+113.313+407.541+114.316+404.2+114.316C397.6+114.316+392.923+109.931+392.923+102.412C392.923+95.2269+397.935+90.7587+404.159+90.7587" opacity="1" fill="#444142"/>
<path d="M-58+178.28M419.18+107.507C421.352+108.719+423.775+109.512+426.072+109.512C428.16+109.512+429.413+108.887+429.413+107.465C429.413+103.789+417.301+106.213+417.301+97.8175C417.301+93.2227+421.435+90.7997+426.239+90.7997C428.661+90.7997+431.417+91.3013+434.676+92.8055L432.42+97.1081C430.249+96.0628+427.825+95.5612+426.364+95.5612C424.527+95.5612+423.357+96.1879+423.357+97.5655C423.357+101.2+435.385+98.6107+435.385+107.089C435.385+111.768+431.501+114.316+426.196+114.316C422.772+114.316+419.681+113.439+416.8+111.851L419.18+107.507" opacity="1" fill="#444142"/>
<path d="M-58+178.28M396.476+5.22534L402.743+5.22534L402.743+10.5293L396.476+10.5293L396.476+5.22534" opacity="1" fill="#444142"/>
<path d="M-58+178.28M396.476+14.288L402.743+14.288L402.743+36.7587L396.476+36.7587L396.476+14.288" opacity="1" fill="#444142"/>
<path d="M-58+178.28M361.695+82.2388L367.96+82.2388L367.96+87.544L361.695+87.544L361.695+82.2388" opacity="1" fill="#444142"/>
<path d="M-58+178.28M361.695+91.3013L367.96+91.3013L367.96+113.773L361.695+113.773L361.695+91.3013" opacity="1" fill="#444142"/>
</g>
</g>
</svg>
